<mxfile host="app.diagrams.net" modified="2023-12-02T18:51:45.345Z" agent="Mozilla/5.0 (Windows NT 10.0; Win64; x64) AppleWebKit/537.36 (KHTML, like Gecko) Chrome/119.0.0.0 Safari/537.36" etag="SKFOtKW7Zbr9wznE2hMt" version="22.1.5" type="device">
  <diagram name="Page-1" id="gU3pu7cFAd9znF7c_oxN">
    <mxGraphModel dx="1430" dy="766" grid="1" gridSize="10" guides="1" tooltips="1" connect="1" arrows="1" fold="1" page="1" pageScale="1" pageWidth="850" pageHeight="1100" math="0" shadow="0">
      <root>
        <mxCell id="0" />
        <mxCell id="1" parent="0" />
        <mxCell id="n2jfgQGDDKDJ1Igjwagx-10" value="" style="ellipse;whiteSpace=wrap;html=1;fillColor=#d5e8d4;strokeColor=#82b366;movable=0;resizable=0;rotatable=0;deletable=0;editable=0;locked=1;connectable=0;" vertex="1" parent="1">
          <mxGeometry x="60" y="290" width="730" height="560" as="geometry" />
        </mxCell>
        <mxCell id="n2jfgQGDDKDJ1Igjwagx-5" value="" style="edgeStyle=orthogonalEdgeStyle;rounded=0;orthogonalLoop=1;jettySize=auto;html=1;" edge="1" parent="1" source="n2jfgQGDDKDJ1Igjwagx-2" target="n2jfgQGDDKDJ1Igjwagx-4">
          <mxGeometry relative="1" as="geometry" />
        </mxCell>
        <mxCell id="n2jfgQGDDKDJ1Igjwagx-7" style="edgeStyle=orthogonalEdgeStyle;rounded=0;orthogonalLoop=1;jettySize=auto;html=1;entryX=0;entryY=0.5;entryDx=0;entryDy=0;" edge="1" parent="1" source="n2jfgQGDDKDJ1Igjwagx-2" target="n2jfgQGDDKDJ1Igjwagx-6">
          <mxGeometry relative="1" as="geometry" />
        </mxCell>
        <mxCell id="n2jfgQGDDKDJ1Igjwagx-2" value="\Sound" style="rounded=1;whiteSpace=wrap;html=1;" vertex="1" parent="1">
          <mxGeometry x="310" y="625" width="120" height="60" as="geometry" />
        </mxCell>
        <mxCell id="n2jfgQGDDKDJ1Igjwagx-4" value="\waboogity.mp3" style="shape=parallelogram;perimeter=parallelogramPerimeter;whiteSpace=wrap;html=1;fixedSize=1;rounded=1;" vertex="1" parent="1">
          <mxGeometry x="580" y="665" width="120" height="60" as="geometry" />
        </mxCell>
        <mxCell id="n2jfgQGDDKDJ1Igjwagx-6" value="\machoman.mp3" style="shape=parallelogram;perimeter=parallelogramPerimeter;whiteSpace=wrap;html=1;fixedSize=1;rounded=1;" vertex="1" parent="1">
          <mxGeometry x="580" y="585" width="120" height="60" as="geometry" />
        </mxCell>
        <mxCell id="n2jfgQGDDKDJ1Igjwagx-13" style="edgeStyle=orthogonalEdgeStyle;rounded=0;orthogonalLoop=1;jettySize=auto;html=1;entryX=0;entryY=0.5;entryDx=0;entryDy=0;" edge="1" parent="1" source="n2jfgQGDDKDJ1Igjwagx-8" target="n2jfgQGDDKDJ1Igjwagx-12">
          <mxGeometry relative="1" as="geometry" />
        </mxCell>
        <mxCell id="n2jfgQGDDKDJ1Igjwagx-8" value="\Models" style="rounded=1;whiteSpace=wrap;html=1;" vertex="1" parent="1">
          <mxGeometry x="310" y="415" width="120" height="60" as="geometry" />
        </mxCell>
        <mxCell id="n2jfgQGDDKDJ1Igjwagx-11" value="&lt;font style=&quot;font-size: 16px;&quot;&gt;Asset Bundle&lt;/font&gt;" style="text;html=1;strokeColor=none;fillColor=none;align=center;verticalAlign=middle;whiteSpace=wrap;rounded=0;fontStyle=1" vertex="1" parent="1">
          <mxGeometry x="360" y="250" width="130" height="50" as="geometry" />
        </mxCell>
        <mxCell id="n2jfgQGDDKDJ1Igjwagx-12" value="\thumper_reskin.obj" style="shape=parallelogram;perimeter=parallelogramPerimeter;whiteSpace=wrap;html=1;fixedSize=1;rounded=1;" vertex="1" parent="1">
          <mxGeometry x="530" y="415" width="160" height="60" as="geometry" />
        </mxCell>
        <mxCell id="n2jfgQGDDKDJ1Igjwagx-15" style="edgeStyle=orthogonalEdgeStyle;rounded=0;orthogonalLoop=1;jettySize=auto;html=1;entryX=0;entryY=0.5;entryDx=0;entryDy=0;" edge="1" parent="1" source="n2jfgQGDDKDJ1Igjwagx-14" target="n2jfgQGDDKDJ1Igjwagx-8">
          <mxGeometry relative="1" as="geometry" />
        </mxCell>
        <mxCell id="n2jfgQGDDKDJ1Igjwagx-16" style="edgeStyle=orthogonalEdgeStyle;rounded=0;orthogonalLoop=1;jettySize=auto;html=1;entryX=0;entryY=0.5;entryDx=0;entryDy=0;" edge="1" parent="1" source="n2jfgQGDDKDJ1Igjwagx-14" target="n2jfgQGDDKDJ1Igjwagx-2">
          <mxGeometry relative="1" as="geometry" />
        </mxCell>
        <mxCell id="n2jfgQGDDKDJ1Igjwagx-14" value="Assets" style="rounded=1;whiteSpace=wrap;html=1;" vertex="1" parent="1">
          <mxGeometry x="100" y="515" width="120" height="60" as="geometry" />
        </mxCell>
      </root>
    </mxGraphModel>
  </diagram>
</mxfile>
